<svg width="20" height="24" viewBox="0 0 20 24" fill="none" xmlns="http://www.w3.org/2000/svg">
<path d="M11.4998 3.79499V4.16743L11.8566 4.27406C14.5397 5.07581 16.5 7.56296 16.5 10.5V13.007C16.5 14.6375 16.9436 16.2395 17.7833 17.6382C17.7833 17.6382 17.7833 17.6383 17.7833 17.6383L19.4999 20.4994L19.5001 20.4999C19.5001 20.4999 19.5001 20.4999 19.5001 20.4999C19.5 20.4999 19.5 20.5 19.4999 20.5H0.500636C0.500518 20.4998 0.500381 20.4996 0.50023 20.4993L0.500045 20.4992L0.072789 20.2429L0.500048 20.4992L2.2171 17.6372L2.21717 17.6371C3.05571 16.2385 3.49941 14.6376 3.49941 13.007V10.5C3.49941 7.56295 5.45964 5.07581 8.14272 4.27406L8.49957 4.16742V3.79499V2.00001C8.49957 1.17316 9.17273 0.5 9.99966 0.5C10.8266 0.5 11.4998 1.17316 11.4998 2.00001V3.79499Z" fill="#EFF1FF" stroke="white"/>
<path d="M9.99943 23.5C9.11819 23.5 8.32658 23.1138 7.77835 22.5H12.2206C11.6723 23.1138 10.8807 23.5 9.99943 23.5Z" fill="#EFF1FF" stroke="white"/>
</svg>
